<svg width="256" height="256" viewBox="0 0 256 256" fill="none" xmlns="http://www.w3.org/2000/svg">
<rect width="256" height="256" rx="128" fill="#2E2E2E"/>
<path d="M203 168.756C197.544 170.144 194.17 168.816 191.143 164.269C184.347 154.087 176.845 144.372 169.607 134.478C168.674 133.197 167.704 131.941 166.496 130.35C157.929 141.908 149.375 152.915 141.346 164.365C138.475 168.457 135.46 170.24 130.1 168.792L162.308 125.564L132.325 86.5234C137.482 85.5184 141.047 86.0329 144.206 90.6512C151.181 100.845 158.875 110.548 166.544 120.814C174.261 110.584 181.859 100.869 189.037 90.7709C191.921 86.679 195.02 85.1236 200.2 86.6311C196.276 91.8357 192.435 96.9566 188.571 102.042C183.354 108.897 178.233 115.837 172.825 122.549C170.899 124.942 171.21 126.497 172.933 128.758C182.935 141.908 192.818 155.188 203 168.756Z" fill="white"/>
<path d="M53.0359 124.846C53.8973 120.527 54.4716 116.124 55.6681 111.888C62.8469 86.2482 92.2798 75.5878 112.5 91.4768C124.345 100.797 127.288 113.934 126.702 128.746H59.9395C58.9344 155.32 78.0658 171.364 102.45 163.181C111.004 160.309 116.041 153.609 118.566 145.234C119.846 141.034 121.964 140.376 125.912 141.573C123.89 152.054 119.308 160.812 109.736 166.291C95.3786 174.499 74.8832 171.843 64.1031 160.441C57.738 153.741 55.034 145.401 53.8375 136.392C53.6581 134.956 53.2872 133.544 53 132.12C53.0239 129.696 53.0359 127.271 53.0359 124.846ZM60.0591 123.063H120.397C120.002 103.848 108.037 90.1966 91.6815 90.0769C73.7346 89.9333 60.8368 103.262 60.0591 123.063Z" fill="white"/>
</svg>
