<svg width="256" height="257" viewBox="0 0 256 257" fill="none" xmlns="http://www.w3.org/2000/svg"><path fill-rule="evenodd" clip-rule="evenodd" d="M113.071 238.421C111.694 238.255 110.702 238.035 109.489 237.484C109.324 237.374 109.048 236.823 109.048 236.603C108.938 234.674 108.938 229.164 108.938 225.472C108.938 222.497 108.443 219.907 107.175 218.089C105.687 215.995 103.538 214.783 100.784 214.783C98.359 214.783 95.1081 216.436 92.4083 218.75C92.3531 218.805 91.9124 219.191 91.9675 218.585C91.9675 217.979 92.0778 216.767 92.133 215.94C92.1882 215.169 91.7474 214.783 91.7474 214.783C89.9838 215.665 85.0249 216.822 83.2067 216.987C81.8844 217.263 81.5539 218.53 82.9314 218.971H82.9865C84.4738 219.411 85.4657 219.907 86.2369 220.403C86.788 220.844 86.7329 221.45 86.7329 221.946C86.788 226.079 86.788 232.415 86.6231 235.887C86.5679 237.264 86.1823 237.759 85.1904 237.98L85.3002 237.925C84.529 238.09 83.9227 238.255 82.986 238.366C82.6556 238.696 82.6556 240.46 82.986 240.845C83.5923 240.845 86.788 240.68 89.4332 240.68C93.0697 240.68 94.9431 240.845 95.8798 240.845C96.2655 240.405 96.3758 238.751 96.1551 238.366C95.1081 238.311 94.3369 238.201 93.6208 237.98C92.6289 237.759 92.3531 237.264 92.298 236.107C92.1882 233.186 92.1882 227.015 92.1882 222.828C92.1882 221.67 92.5186 221.119 92.8491 220.789C94.1162 219.687 96.1551 218.915 97.9734 218.915C99.7365 218.915 100.894 219.467 101.775 220.183C102.987 221.174 103.373 222.607 103.538 223.654C103.814 226.023 103.704 230.707 103.704 234.784C103.704 236.988 103.538 237.539 102.712 237.815C102.326 237.98 101.335 238.201 100.177 238.311C99.7917 238.696 99.902 240.405 100.177 240.79C101.775 240.79 103.649 240.625 106.404 240.625C109.82 240.625 112.024 240.79 112.906 240.79C113.181 240.46 113.291 238.862 113.071 238.421H113.071ZM128.334 217.373C125.413 217.373 123.595 219.632 123.595 223.158C123.595 226.74 125.193 230.872 129.711 230.872C130.482 230.872 131.915 230.542 132.576 229.77C133.623 228.778 134.34 226.795 134.34 224.701C134.34 220.128 132.08 217.373 128.334 217.373ZM127.948 241.727C126.846 241.727 126.074 242.057 125.579 242.333C123.264 243.82 122.218 245.253 122.218 246.962C122.218 248.559 122.823 249.826 124.146 250.929C125.744 252.306 127.948 252.967 130.758 252.967C136.378 252.967 138.858 249.937 138.858 246.962C138.858 244.868 137.811 243.49 135.662 242.719C134.119 242.057 131.309 241.727 127.948 241.727ZM128.334 256.053C124.972 256.053 122.548 255.336 120.454 253.739C118.416 252.196 117.534 249.882 117.534 248.284C117.534 247.843 117.644 246.631 118.636 245.529C119.242 244.868 120.564 243.6 123.705 241.452C123.815 241.396 123.87 241.341 123.87 241.231C123.87 241.121 123.76 241.01 123.65 240.956C121.06 239.964 120.289 238.366 120.068 237.484V237.374C120.014 237.043 119.903 236.713 120.399 236.382C120.785 236.107 121.336 235.776 121.942 235.391C122.878 234.84 123.87 234.233 124.477 233.737C124.587 233.627 124.587 233.517 124.587 233.407C124.587 233.297 124.477 233.186 124.366 233.132C120.51 231.864 118.581 228.999 118.581 224.701C118.581 221.891 119.848 219.356 122.107 217.759C123.65 216.546 127.507 215.059 130.042 215.059H130.207C132.797 215.113 134.229 215.665 136.268 216.381C137.37 216.767 138.417 216.932 139.85 216.932C141.998 216.932 142.935 216.271 143.706 215.5C143.761 215.609 143.872 215.885 143.927 216.601C143.982 217.318 143.761 218.364 143.21 219.136C142.769 219.742 141.778 220.183 140.786 220.183H140.51C139.519 220.073 139.078 219.962 139.078 219.962L138.858 220.073C138.803 220.183 138.858 220.293 138.913 220.458L138.968 220.569C139.078 221.065 139.298 222.552 139.298 222.938C139.298 227.456 137.48 229.439 135.552 230.927C133.678 232.305 131.529 233.186 129.105 233.407C129.05 233.407 128.83 233.407 128.334 233.462C128.058 233.462 127.672 233.517 127.617 233.517H127.562C127.121 233.627 126.02 234.178 126.02 235.115C126.02 235.941 126.515 236.933 128.884 237.099C129.38 237.154 129.876 237.154 130.427 237.209C133.568 237.429 137.48 237.705 139.298 238.311C141.833 239.247 143.431 241.506 143.431 244.207C143.431 248.284 140.51 252.086 135.662 254.455C133.293 255.502 130.923 256.053 128.334 256.053ZM159.741 217.648C158.583 217.648 157.536 217.924 156.765 218.475C154.616 219.797 153.514 222.442 153.514 226.299C153.514 233.517 157.151 238.586 162.33 238.586C163.873 238.586 165.085 238.146 166.132 237.264C167.73 235.941 168.557 233.297 168.557 229.605C168.557 222.442 164.975 217.648 159.741 217.648ZM160.732 241.231C151.365 241.231 148.004 234.344 148.004 227.897C148.004 223.379 149.822 219.907 153.459 217.428C156.049 215.83 159.134 214.948 161.889 214.948C169.052 214.948 174.067 220.073 174.067 227.456C174.067 232.47 172.083 236.437 168.281 238.862C166.463 240.074 163.322 241.231 160.732 241.231H160.732ZM62.5444 217.648C61.3871 217.648 60.3405 217.924 59.5688 218.475C57.4201 219.797 56.3179 222.442 56.3179 226.299C56.3179 233.517 59.9544 238.586 65.1339 238.586C66.6769 238.586 67.8889 238.146 68.9359 237.264C70.5335 235.941 71.3604 233.297 71.3604 229.605C71.3604 222.442 67.8337 217.648 62.5444 217.648ZM63.5363 241.231C54.1692 241.231 50.808 234.344 50.808 227.897C50.808 223.379 52.6262 219.907 56.2627 217.428C58.8527 215.83 61.9382 214.948 64.6931 214.948C71.8564 214.948 76.8704 220.073 76.8704 227.456C76.8704 232.47 74.8866 236.437 71.0846 238.862C69.3215 240.074 66.1809 241.231 63.5363 241.231ZM0.557098 240.68C0.446775 240.515 0.336453 240.019 0.391614 239.413C0.391614 238.972 0.501937 238.696 0.557098 238.586C1.71394 238.421 2.3202 238.255 2.9811 238.09C4.08329 237.815 4.52407 237.209 4.57923 235.831C4.74471 232.525 4.74471 226.244 4.68955 221.891V221.781C4.68955 221.285 4.68955 220.679 4.08329 220.238C3.20174 219.687 2.15471 219.191 0.777228 218.805C0.281292 218.64 -0.0491602 218.364 0.00600116 218.034C0.00600116 217.703 0.336453 217.318 1.05303 217.207C2.87129 217.042 7.60948 215.885 9.48291 215.059C9.59323 215.169 9.75872 215.5 9.75872 215.94L9.70355 216.546C9.64839 217.152 9.59323 217.869 9.59323 218.585C9.59323 218.805 9.81387 218.971 10.034 218.971C10.1443 218.971 10.2547 218.915 10.365 218.86C13.8912 216.105 17.0869 215.113 18.7397 215.113C21.44 215.113 23.5336 216.381 25.1317 219.026C25.2415 219.191 25.3518 219.246 25.5173 219.246C25.6276 219.246 25.7926 219.191 25.8478 219.081C29.0987 216.601 32.3496 215.113 34.4983 215.113C39.6226 215.113 42.6534 218.915 42.6534 225.362C42.6534 227.18 42.6534 229.55 42.5982 231.699C42.5982 233.627 42.543 235.391 42.543 236.658C42.543 236.933 42.9287 237.815 43.5349 237.98C44.3061 238.366 45.3532 238.531 46.7307 238.751H46.7858C46.8961 239.137 46.6755 240.57 46.4554 240.845C46.1244 240.845 45.6285 240.845 45.0779 240.79C44.0309 240.735 42.543 240.68 40.8903 240.68C37.4739 240.68 35.7108 240.735 34.0023 240.845C33.8925 240.405 33.8374 239.082 34.0023 238.751C34.9942 238.586 35.4901 238.421 36.0964 238.255C37.1986 237.925 37.4739 237.429 37.529 235.996C37.529 234.95 37.7492 226.023 37.4187 223.874C37.0883 221.67 35.435 219.081 31.7985 219.081C30.421 219.081 28.2723 219.632 26.1782 221.23C26.0684 221.34 25.9581 221.615 25.9581 221.781V221.836C26.1782 222.993 26.1782 224.316 26.1782 226.354V229.935C26.1782 232.415 26.123 234.729 26.1782 236.492C26.1782 237.705 26.8948 237.98 27.501 238.201C27.8315 238.255 28.0516 238.311 28.3274 238.366C28.8234 238.476 29.3193 238.586 30.0905 238.751C30.2009 238.972 30.2009 239.688 30.0354 240.294C29.9802 240.625 29.8699 240.79 29.8152 240.845C27.9418 240.79 26.0132 240.735 23.2031 240.735C22.3767 240.735 20.9441 240.79 19.7316 240.79C18.7397 240.79 17.803 240.845 17.2524 240.845C17.1972 240.735 17.0869 240.349 17.0869 239.743C17.0869 239.247 17.1972 238.862 17.3076 238.751C17.5828 238.696 17.803 238.642 18.0788 238.642C18.7397 238.531 19.2908 238.421 19.8419 238.311C20.7786 238.035 21.109 237.539 21.1642 236.327C21.3297 233.572 21.4947 225.693 21.109 223.709C20.4481 220.514 18.6299 218.915 15.7094 218.915C14.0015 218.915 11.8523 219.742 10.0892 221.065C9.81388 221.285 9.59323 221.836 9.59323 222.332V225.583C9.59323 229.55 9.59323 234.509 9.64839 236.658C9.70356 237.319 9.92368 238.09 11.1914 238.366C11.4667 238.421 11.9074 238.531 12.4585 238.586L13.4504 238.751C13.5607 239.082 13.5056 240.405 13.2849 240.845C12.7338 240.845 12.0729 240.79 11.3012 240.79C10.1443 240.735 8.65652 240.68 7.00375 240.68C5.07516 240.68 3.69768 240.735 2.59549 240.79C1.82426 240.68 1.218 240.68 0.557098 240.68Z" fill="#442D22"/><path fill-rule="evenodd" clip-rule="evenodd" d="M235.282 205.03C235.007 205.085 234.731 205.692 234.731 206.022C234.676 208.226 234.621 214.067 234.621 218.034C234.621 218.144 234.786 218.364 234.952 218.364C235.778 218.419 237.762 218.475 239.47 218.475C241.839 218.475 243.216 218.144 243.988 217.814C245.971 216.822 246.908 214.673 246.908 212.303C246.908 206.959 243.161 204.92 237.596 204.92C237.211 204.865 236.109 204.865 235.282 205.03ZM249.498 229.66C249.498 224.205 245.476 221.174 238.202 221.174C237.872 221.174 235.558 221.119 235.007 221.23C234.841 221.285 234.621 221.395 234.621 221.561C234.621 225.472 234.566 231.699 234.731 234.123C234.841 235.17 235.613 236.658 236.55 237.099C237.541 237.65 239.801 237.759 241.343 237.759C245.696 237.759 249.498 235.335 249.498 229.66ZM224.042 202C224.593 202 226.246 202.165 230.489 202.165C234.511 202.165 237.707 202.055 241.619 202.055C246.412 202.055 253.024 203.763 253.024 210.926C253.024 214.453 250.545 217.263 247.294 218.64C247.129 218.695 247.129 218.805 247.294 218.86C251.922 220.018 256 222.883 256 228.283C256 233.572 252.694 236.933 247.9 239.027C244.98 240.294 241.343 240.735 237.651 240.735C234.841 240.735 227.293 240.405 223.105 240.515C222.665 240.349 223.491 238.366 223.877 238.035C224.868 237.98 225.64 237.925 226.687 237.594C228.174 237.209 228.339 236.768 228.56 234.509C228.67 232.58 228.67 225.748 228.67 220.899C228.67 214.232 228.726 209.714 228.67 207.51C228.615 205.802 228.009 205.251 226.797 204.92C225.86 204.755 224.317 204.534 223.05 204.369C222.774 204.094 223.711 202.22 224.042 202ZM192.249 236.272C193.572 237.319 196.161 237.759 198.476 237.759C201.451 237.759 204.426 237.209 207.292 234.619C210.212 231.974 212.25 227.897 212.25 221.395C212.25 215.169 209.881 210.099 205.033 207.124C202.278 205.416 198.751 204.7 194.674 204.7C193.462 204.7 192.304 204.755 191.588 205.085C191.423 205.196 191.037 205.692 191.037 205.967C190.927 207.069 190.927 215.554 190.927 220.514C190.927 225.638 190.927 232.801 191.037 233.627C191.037 234.454 191.423 235.721 192.249 236.272ZM179.741 202C180.788 202 184.811 202.165 186.739 202.165C190.211 202.165 192.69 202 199.247 202C204.757 202 209.385 203.488 212.691 206.297C216.713 209.769 218.807 214.563 218.807 220.403C218.807 228.723 215.005 233.517 211.203 236.272C207.402 239.082 202.443 240.735 195.39 240.735C191.643 240.735 185.197 240.625 179.852 240.57H179.797C179.521 240.074 180.237 238.146 180.678 238.09C182.111 237.925 182.496 237.87 183.213 237.594C184.37 237.154 184.59 236.547 184.756 234.509C184.921 230.707 184.866 226.134 184.866 220.954C184.866 217.263 184.921 210.044 184.811 207.73C184.646 205.802 183.819 205.306 182.166 204.975C181.339 204.81 180.237 204.589 178.695 204.425C178.474 204.038 179.466 202.33 179.741 202Z" fill="#8E714E"/><path fill-rule="evenodd" clip-rule="evenodd" d="M133.775 201.8L128.402 199.965C128.402 199.965 129.058 172.578 119.23 170.612C112.679 163.012 120.279 -151.743 143.865 169.564C143.865 169.564 135.741 173.626 134.3 180.571C132.727 187.386 133.775 201.8 133.775 201.8Z" fill="#A6A385"/><path fill-rule="evenodd" clip-rule="evenodd" d="M136.659 175.33C136.659 175.33 183.701 144.405 172.694 80.0643C162.08 33.2841 137.051 17.9527 134.3 12.0555C131.286 7.86251 128.403 0.52475 128.403 0.52475L130.369 130.645C130.369 130.776 126.306 170.481 136.659 175.33Z" fill="#499D4A"/><path fill-rule="evenodd" clip-rule="evenodd" d="M125.651 177.033C125.651 177.033 81.491 146.894 84.1122 93.824C86.6011 40.7531 117.789 14.6767 123.816 9.959C127.748 5.76599 127.879 4.193 128.141 0C130.892 5.89718 130.369 88.1892 130.761 97.8858C131.941 135.232 128.665 169.958 125.651 177.033Z" fill="#58AA50"/></svg>