<svg width="256" height="252" viewBox="0 0 256 252" fill="none" xmlns="http://www.w3.org/2000/svg">
<path d="M58.1619 43.0223C55.204 43.0223 53.1172 43.3716 51.0292 43.8933C51.0292 43.8924 51.0292 44.0679 51.0292 44.2415H51.3774C52.7701 47.0247 55.204 48.9392 56.9438 51.3742C58.3366 54.1575 59.5535 56.9418 60.9463 59.7262C61.1198 59.5515 61.2933 59.378 61.2933 59.378C63.7306 57.6371 64.9476 54.8538 64.9476 50.679C63.903 49.4609 63.7295 48.2428 62.8596 47.0247C61.8162 45.2838 59.5535 44.415 58.1619 43.0223Z" fill="#00546B"/>
<path d="M235.624 194.212C221.705 193.865 210.918 195.257 201.871 199.084C199.261 200.127 195.085 200.128 194.737 203.433C196.13 204.826 196.304 207.088 197.522 209.001C199.611 212.48 203.263 217.178 206.569 219.615C210.222 222.398 213.876 225.181 217.703 227.617C224.489 231.793 232.144 234.228 238.755 238.404C242.584 240.838 246.41 243.972 250.237 246.581C252.152 247.972 253.369 250.235 255.805 251.104V250.583C254.587 249.016 254.239 246.755 253.022 245.015C251.283 243.275 249.542 241.709 247.802 239.969C242.757 233.185 236.494 227.269 229.708 222.398C224.142 218.57 211.962 213.351 209.7 206.913C209.7 206.913 209.526 206.74 209.352 206.566C213.18 206.218 217.703 204.826 221.357 203.782C227.273 202.215 232.666 202.564 238.755 200.998C241.538 200.302 244.323 199.432 247.106 198.562V196.997C243.976 193.865 241.713 189.69 238.407 186.732C229.534 179.075 219.791 171.595 209.7 165.332C204.306 161.853 197.347 159.59 191.606 156.633C189.519 155.588 186.038 155.067 184.821 153.327C181.689 149.5 179.949 144.455 177.688 139.931C172.644 130.361 167.77 119.749 163.421 109.659C160.291 102.873 158.376 96.0873 154.548 89.8245C136.629 60.2479 117.143 42.3281 87.2178 24.7555C80.7803 21.1023 73.1259 19.5361 64.9486 17.6227C60.6002 17.4481 56.2496 17.101 51.9 16.9264C49.1168 15.7083 46.3324 12.4033 43.8963 10.837C33.9814 4.5731 8.40495 -8.99607 1.09758 8.9237C-3.60011 20.2325 8.05679 31.3665 12.0581 37.1087C15.0171 41.11 18.8437 45.6331 20.9317 50.1572C22.1498 53.1129 22.4969 56.2465 23.715 59.378C26.4993 67.0313 29.1079 75.5579 32.7622 82.6918C34.6766 86.345 36.7635 90.1727 39.1997 93.4777C40.5913 95.391 43.0263 96.262 43.5492 99.3934C41.1141 102.873 40.9395 108.092 39.5467 112.442C33.2839 132.101 35.72 156.459 44.5926 170.899C47.3758 175.247 53.9879 184.818 62.8606 181.164C70.6897 178.033 68.9499 168.116 71.2114 159.417C71.7342 157.328 71.386 155.937 72.4295 154.545C72.4304 154.719 72.4295 154.894 72.4295 154.894C74.8656 159.765 77.3007 164.463 79.5622 169.334C84.9563 177.858 94.3506 186.732 102.18 192.648C106.357 195.778 109.662 201.172 114.881 203.086V202.563H114.533C113.488 200.997 111.923 200.302 110.532 199.084C107.4 195.952 103.919 192.125 101.484 188.645C94.1781 178.901 87.7395 168.116 81.9984 156.98C79.2151 151.588 76.779 145.672 74.5174 140.279C73.4729 138.19 73.4729 135.059 71.7331 134.016C69.1234 137.843 65.2967 141.149 63.3823 145.846C60.0784 153.327 59.7291 162.548 58.511 172.117C57.8158 172.292 58.1629 172.117 57.8147 172.465C52.2482 171.072 50.3337 165.332 48.2457 160.46C43.0263 148.108 42.1564 128.274 46.6806 114.008C47.8986 110.354 53.1181 98.8717 51.0301 95.3921C49.9866 92.086 46.5059 90.1727 44.5926 87.563C42.3311 84.2569 39.8949 80.0821 38.3297 76.4279C34.1538 66.6854 32.0658 55.8984 27.5428 46.1548C25.4548 41.6307 21.8016 36.9341 18.8437 32.7592C15.5388 28.0615 11.8845 24.7555 9.27479 19.1879C8.40599 17.2745 7.18681 14.1431 8.57843 12.0551C8.92661 10.6635 9.62187 10.1418 11.0146 9.79358C13.2761 7.87913 19.7136 10.3153 21.9751 11.3587C28.4126 13.9673 33.8055 16.4046 39.1996 20.0578C41.6346 21.7976 44.2443 25.1036 47.3758 25.9735H51.03C56.5976 27.1905 62.8604 26.3217 68.0798 27.8869C77.3017 30.8436 85.6514 35.1943 93.1335 39.892C115.926 54.3321 134.714 74.8626 147.416 99.3934C149.504 103.394 150.372 107.049 152.287 111.224C155.941 119.749 160.464 128.448 164.117 136.799C167.77 144.975 171.25 153.327 176.469 160.113C179.08 163.765 189.518 165.68 194.216 167.594C197.695 169.159 203.089 170.552 206.221 172.465C212.135 176.117 218.051 180.294 223.619 184.296C226.403 186.383 235.101 190.733 235.624 194.212L235.624 194.212Z" fill="#00546B"/>
</svg>
