<svg width="256" height="256" viewBox="0 0 256 256" fill="none" xmlns="http://www.w3.org/2000/svg"><path d="M127.595 256C124.067 256 120.774 255.059 117.717 253.413L86.4373 234.833C81.7336 232.246 84.0854 231.305 85.4966 230.835C91.8466 228.718 93.0225 228.248 99.6077 224.485C100.313 224.015 101.254 224.25 101.96 224.72L125.949 239.067C126.889 239.537 128.065 239.537 128.771 239.067L222.61 184.739C223.551 184.268 224.021 183.328 224.021 182.152V73.7308C224.021 72.5549 223.551 71.6142 222.61 71.1438L128.771 17.051C127.83 16.5806 126.654 16.5806 125.949 17.051L32.1093 71.1438C31.1686 71.6142 30.6982 72.7901 30.6982 73.7308V182.152C30.6982 183.092 31.1686 184.268 32.1093 184.739L57.7446 199.555C71.6206 206.611 80.3225 198.379 80.3225 190.148V83.1383C80.3225 81.7271 81.4984 80.316 83.1447 80.316H95.1392C96.5503 80.316 97.9614 81.492 97.9614 83.1383V190.148C97.9614 208.728 87.8484 219.546 70.2095 219.546C64.8002 219.546 60.5668 219.546 48.5723 213.667L23.8778 199.555C17.763 196.028 14 189.442 14 182.387V73.966C14 66.9104 17.763 60.3252 23.8778 56.7974L117.717 2.46945C123.597 -0.823151 131.593 -0.823151 137.473 2.46945L231.312 56.7974C237.427 60.3252 241.19 66.9104 241.19 73.966V182.387C241.19 189.442 237.427 196.028 231.312 199.555L137.473 253.883C134.415 255.294 130.887 256 127.595 256ZM156.523 181.446C115.365 181.446 106.898 162.631 106.898 146.638C106.898 145.227 108.074 143.816 109.721 143.816H121.95C123.362 143.816 124.537 144.757 124.537 146.168C126.419 158.633 131.828 164.748 156.758 164.748C176.514 164.748 184.98 160.279 184.98 149.696C184.98 143.581 182.628 139.113 151.819 136.055C126.184 133.468 110.191 127.824 110.191 107.362C110.191 88.3123 126.184 77.0234 152.995 77.0234C183.099 77.0234 197.915 87.3716 199.797 109.949C199.797 110.655 199.562 111.361 199.091 112.066C198.621 112.537 197.915 113.007 197.21 113.007H184.98C183.804 113.007 182.628 112.066 182.393 110.89C179.571 97.955 172.28 93.7216 152.995 93.7216C131.358 93.7216 128.771 101.248 128.771 106.892C128.771 113.712 131.828 115.829 160.991 119.592C189.919 123.355 203.56 128.764 203.56 148.99C203.325 169.687 186.391 181.446 156.523 181.446Z" fill="#539E43"/></svg>