<svg width="256" height="256" viewBox="0 0 256 256" fill="none" xmlns="http://www.w3.org/2000/svg"><path d="M128 67.72C196.56 67.72 249.28 96.6 249.28 128.32C249.28 160.04 196.52 188.92 128 188.92C59.44 188.92 6.72 160.04 6.72 128.32C6.72 96.6 59.48 67.72 128 67.72ZM128 61C57.32 61 0 91.12 0 128.32C0 165.52 57.32 195.64 128 195.64C198.68 195.64 256 165.52 256 128.32C256 91.12 198.68 61 128 61ZM87.28 122.92C84.12 139.12 72.96 137.44 59.24 137.44L64.72 109.2C79.92 109.2 90.24 107.56 87.28 122.92ZM38.96 166.04H53.64L57.12 148.12C73.56 148.12 83.76 149.32 93.2 140.48C103.64 130.88 106.36 113.8 98.92 105.24C95.04 100.76 88.8 98.56 80.32 98.56H52.04L38.96 166.04ZM113.24 80.6H127.84L124.36 98.52C136.96 98.52 148.64 97.6 154.28 102.8C160.2 108.24 157.36 115.2 150.96 148.04H136.16C142.32 116.28 143.48 113.64 141.24 111.24C139.08 108.92 134.16 109.4 122.28 109.4L114.76 148.04H100.16L113.24 80.6V80.6ZM202 122.92C198.8 139.36 187.32 137.44 173.96 137.44L179.44 109.2C194.72 109.2 204.96 107.56 202 122.92V122.92ZM153.68 166.04H168.4L171.88 148.12C189.16 148.12 198.72 149.12 207.96 140.48C218.4 130.88 221.12 113.8 213.68 105.24C209.8 100.76 203.56 98.56 195.08 98.56H166.8L153.68 166.04V166.04Z" fill="#6181B6"/></svg>