<svg width="256" height="256" viewBox="0 0 256 256" fill="none" xmlns="http://www.w3.org/2000/svg">
<path d="M220.436 142.365C211.505 142.411 203.743 144.562 197.243 147.742C194.859 143.019 192.474 138.811 192.053 135.725C191.586 132.124 191.024 129.927 191.585 125.625C192.147 121.323 194.672 115.197 194.625 114.73C194.578 114.262 194.064 112.064 188.92 112.018C183.777 111.971 179.335 113 178.82 114.356C178.306 115.712 177.324 118.798 176.669 121.977C175.781 126.653 166.382 143.346 161.005 152.09C159.275 148.677 157.778 145.684 157.451 143.3C156.984 139.699 156.422 137.502 156.984 133.2C157.545 128.898 160.07 122.772 160.023 122.305C159.976 121.837 159.462 119.639 154.318 119.593C149.175 119.546 144.733 120.575 144.218 121.931C143.704 123.287 143.143 126.466 142.067 129.552C140.992 132.639 128.507 160.507 125.234 167.708C123.551 171.402 122.101 174.348 121.072 176.359C121.072 176.359 121.026 176.499 120.885 176.733C119.997 178.463 119.483 179.398 119.483 179.398C119.483 179.398 119.483 179.398 119.483 179.445C118.781 180.707 118.033 181.876 117.659 181.876C117.378 181.876 116.864 178.51 117.752 173.927C119.623 164.248 124.065 149.191 124.018 148.677C124.018 148.396 124.86 145.778 121.119 144.422C117.472 143.066 116.163 145.31 115.835 145.31C115.508 145.31 115.274 146.105 115.274 146.105C115.274 146.105 119.342 129.178 107.512 129.178C100.124 129.178 89.9306 137.268 84.8806 144.562C81.7009 146.292 74.9208 149.986 67.6731 153.961C64.9143 155.504 62.062 157.047 59.3967 158.496C59.2097 158.309 59.0226 158.076 58.8356 157.889C44.5272 142.598 18.0614 131.797 19.1836 111.27C19.6044 103.788 22.1762 84.1491 70.0111 60.3018C109.382 40.8966 140.711 46.2739 146.135 58.1976C153.897 75.218 129.349 106.827 88.6681 111.41C73.1439 113.14 65.0078 107.155 62.9504 104.91C60.7995 102.572 60.4722 102.432 59.6772 102.9C58.368 103.601 59.2097 105.705 59.6772 106.921C60.893 110.101 65.8962 115.712 74.3597 118.47C81.8412 120.902 100.031 122.258 122.054 113.748C146.696 104.209 165.961 77.6963 160.303 55.4855C154.646 32.9475 117.238 25.5128 81.8412 38.0911C60.7995 45.5726 37.9809 57.3559 21.5683 72.693C2.06967 90.9292 -1.01645 106.781 0.246057 113.42C4.78172 136.987 37.2795 152.324 50.2786 163.687C49.624 164.061 49.0161 164.388 48.5018 164.669C42.0022 167.895 17.2197 180.847 11.0475 194.548C4.03357 210.072 12.1697 221.201 17.547 222.697C34.2401 227.326 51.4008 219.003 60.6124 205.256C69.824 191.509 68.7018 173.647 64.4467 165.464C64.3999 165.37 64.3532 165.277 64.2597 165.183C65.943 164.201 67.6731 163.172 69.3564 162.19C72.6764 160.227 75.9495 158.403 78.7551 156.907C77.1653 161.255 75.9963 166.446 75.4352 173.927C74.7338 182.718 78.3342 194.127 83.0569 198.616C85.1611 200.58 87.6394 200.627 89.2292 200.627C94.7468 200.627 97.225 196.044 99.9838 190.62C103.351 183.98 106.39 176.265 106.39 176.265C106.39 176.265 102.602 197.12 112.889 197.12C116.63 197.12 120.418 192.257 122.101 189.779V189.825C122.101 189.825 122.195 189.685 122.382 189.358C122.756 188.75 122.989 188.376 122.989 188.376V188.282C124.486 185.664 127.852 179.725 132.856 169.859C139.309 157.14 145.528 141.242 145.528 141.242C145.528 141.242 146.089 145.123 148.006 151.576C149.128 155.364 151.466 159.525 153.336 163.547C151.84 165.651 150.905 166.82 150.905 166.82C150.905 166.82 150.905 166.82 150.952 166.866C149.736 168.456 148.427 170.186 146.977 171.87C141.88 177.948 135.802 184.916 134.96 186.926C133.978 189.311 134.212 191.041 136.082 192.444C137.438 193.473 139.87 193.613 142.348 193.473C146.93 193.145 150.157 192.023 151.746 191.322C154.225 190.433 157.124 189.077 159.836 187.066C164.839 183.372 167.878 178.089 167.598 171.122C167.458 167.287 166.195 163.453 164.652 159.853C165.12 159.198 165.541 158.543 166.008 157.889C173.91 146.339 180.036 133.667 180.036 133.667C180.036 133.667 180.597 137.548 182.514 144.001C183.449 147.274 185.367 150.828 187.05 154.288C179.615 160.32 175.033 167.334 173.396 171.916C170.45 180.427 172.741 184.261 177.09 185.149C179.054 185.57 181.86 184.635 183.917 183.747C186.535 182.905 189.622 181.455 192.567 179.304C197.571 175.61 202.387 170.467 202.106 163.5C201.966 160.32 201.124 157.187 199.955 154.148C206.268 151.529 214.404 150.08 224.785 151.296C247.042 153.914 251.438 167.802 250.596 173.647C249.754 179.491 245.078 182.671 243.535 183.653C241.992 184.635 241.478 184.962 241.618 185.664C241.805 186.692 242.553 186.646 243.863 186.459C245.686 186.131 255.552 181.736 255.973 170.981C256.675 157.234 243.582 142.224 220.436 142.365ZM48.7355 200.253C41.3476 208.295 31.0605 211.335 26.6184 208.763C21.8489 206.004 23.7193 194.127 32.7906 185.617C38.3082 180.427 45.4156 175.61 50.1383 172.665C51.2138 172.01 52.8036 171.075 54.7208 169.906C55.0481 169.719 55.2351 169.625 55.2351 169.625C55.6092 169.391 55.9833 169.158 56.3573 168.924C59.6772 181.081 56.4976 191.789 48.7355 200.253ZM102.509 163.687C99.9371 169.953 94.5598 185.991 91.2866 185.103C88.481 184.354 86.7509 172.197 90.7255 160.18C92.7361 154.148 96.9912 146.947 99.4695 144.141C103.491 139.652 107.933 138.156 109.008 139.98C110.364 142.365 104.099 159.759 102.509 163.687ZM146.884 184.916C145.808 185.477 144.779 185.851 144.312 185.57C143.984 185.383 144.779 184.635 144.779 184.635C144.779 184.635 150.344 178.65 152.541 175.938C153.804 174.348 155.3 172.478 156.89 170.373V170.981C156.89 178.135 149.97 182.952 146.884 184.916ZM181.111 177.107C180.316 176.546 180.457 174.675 183.122 168.83C184.151 166.539 186.582 162.705 190.744 159.011C191.211 160.507 191.539 161.957 191.492 163.313C191.445 172.337 184.992 175.704 181.111 177.107Z" fill="#CD6799"/>
</svg>
