<svg width="256" height="256" viewBox="0 0 256 256" fill="none" xmlns="http://www.w3.org/2000/svg">
<circle cx="128" cy="128" r="128" fill="#001C17"/>
<path d="M108.693 145.04C108.693 149.12 108.213 152.96 107.253 156.56C106.373 160.16 104.773 163.32 102.453 166.04C100.213 168.68 97.1333 170.8 93.2133 172.4C89.3733 173.92 84.4933 174.68 78.5733 174.68C73.1333 174.68 68.4533 174.04 64.5333 172.76C60.6133 171.4 57.3733 169.84 54.8133 168.08L61.0533 153.56C63.3733 154.92 65.8533 156.12 68.4933 157.16C71.1333 158.2 74.0133 158.72 77.1333 158.72C81.6933 158.72 84.9733 157.6 86.9733 155.36C88.9733 153.12 89.9733 149.36 89.9733 144.08V89.84H108.693V145.04ZM180.182 173C179.302 170.12 178.302 167.16 177.182 164.12C176.142 161.08 175.102 158.04 174.062 155H141.662C140.622 158.04 139.542 161.08 138.422 164.12C137.382 167.16 136.422 170.12 135.542 173H116.102C119.222 164.04 122.182 155.76 124.982 148.16C127.782 140.56 130.502 133.4 133.142 126.68C135.862 119.96 138.502 113.6 141.062 107.6C143.702 101.52 146.422 95.6 149.222 89.84H167.102C169.822 95.6 172.502 101.52 175.142 107.6C177.782 113.6 180.422 119.96 183.062 126.68C185.782 133.4 188.542 140.56 191.342 148.16C194.142 155.76 197.102 164.04 200.222 173H180.182ZM157.742 108.68C157.342 109.88 156.742 111.52 155.942 113.6C155.142 115.68 154.222 118.08 153.182 120.8C152.142 123.52 150.982 126.52 149.702 129.8C148.502 133.08 147.262 136.52 145.982 140.12H169.622C168.342 136.52 167.102 133.08 165.902 129.8C164.702 126.52 163.542 123.52 162.422 120.8C161.382 118.08 160.462 115.68 159.662 113.6C158.862 111.52 158.222 109.88 157.742 108.68Z" fill="#2CAE94"/>
</svg>
