<svg width="32" height="32" viewBox="0 0 32 32" fill="none" xmlns="http://www.w3.org/2000/svg">
<mask id="mask0_122_38" style="mask-type:alpha" maskUnits="userSpaceOnUse" x="1" y="1" width="30" height="30">
<path d="M18.6907 9.81867C18.7593 9.56247 18.7233 9.28952 18.5907 9.05985C18.458 8.83018 18.2396 8.66261 17.9834 8.59401C17.7272 8.5254 17.4542 8.56138 17.2245 8.69404C16.9949 8.82669 16.8273 9.04514 16.7587 9.30134L13.308 22.1813C13.2394 22.4377 13.2755 22.7108 13.4082 22.9406C13.541 23.1704 13.7596 23.3381 14.016 23.4067C14.2724 23.4753 14.5455 23.4392 14.7753 23.3064C15.0051 23.1737 15.1728 22.955 15.2414 22.6987L18.6907 9.81867ZM21.3734 11.2933C21.2818 11.1951 21.1714 11.1163 21.0487 11.0616C20.9261 11.007 20.7937 10.9776 20.6594 10.9752C20.5251 10.9728 20.3917 10.9975 20.2672 11.0478C20.1427 11.0981 20.0296 11.173 19.9346 11.268C19.8397 11.3629 19.7648 11.476 19.7145 11.6005C19.6642 11.7251 19.6395 11.8584 19.6419 11.9927C19.6443 12.127 19.6737 12.2594 19.7283 12.3821C19.783 12.5047 19.8618 12.6151 19.96 12.7067L20.188 12.936C21.0974 13.8453 21.7067 14.456 22.1 14.9733C22.4774 15.4667 22.5627 15.7547 22.5627 16C22.5627 16.2453 22.4774 16.5333 22.1 17.0267C21.7067 17.5427 21.0974 18.1547 20.188 19.064L19.96 19.2933C19.8618 19.3849 19.783 19.4953 19.7283 19.618C19.6737 19.7406 19.6443 19.873 19.6419 20.0073C19.6395 20.1416 19.6642 20.275 19.7145 20.3995C19.7648 20.524 19.8397 20.6371 19.9346 20.7321C20.0296 20.827 20.1427 20.9019 20.2672 20.9522C20.3917 21.0025 20.5251 21.0272 20.6594 21.0248C20.7937 21.0224 20.9261 20.993 21.0487 20.9384C21.1714 20.8837 21.2818 20.8049 21.3734 20.7067L21.652 20.4293C22.4987 19.5827 23.2054 18.876 23.6907 18.24C24.2027 17.568 24.5627 16.8587 24.5627 16C24.5627 15.1413 24.2027 14.432 23.6907 13.76C23.2054 13.124 22.4987 12.4173 21.6507 11.5707L21.3734 11.2933ZM10.6267 11.2933C10.8163 11.1167 11.067 11.0205 11.326 11.0251C11.5851 11.0297 11.8323 11.1346 12.0155 11.3178C12.1987 11.5011 12.3037 11.7482 12.3083 12.0073C12.3128 12.2664 12.2167 12.5171 12.04 12.7067L11.812 12.936C10.9027 13.8453 10.2947 14.456 9.90002 14.9733C9.52269 15.4667 9.43869 15.7547 9.43869 16C9.43869 16.2453 9.52269 16.5333 9.90002 17.0267C10.2947 17.5427 10.9027 18.1547 11.812 19.064L12.0414 19.2933C12.1368 19.3856 12.2129 19.496 12.2653 19.618C12.3177 19.7401 12.3452 19.8713 12.3463 20.0041C12.3474 20.1369 12.322 20.2685 12.2717 20.3914C12.2213 20.5143 12.147 20.6259 12.0531 20.7197C11.9591 20.8136 11.8474 20.8878 11.7245 20.938C11.6016 20.9882 11.4699 21.0135 11.3371 21.0123C11.2044 21.011 11.0732 20.9834 10.9512 20.9309C10.8292 20.8785 10.7189 20.8022 10.6267 20.7067L10.3494 20.4293C9.50135 19.5827 8.79469 18.876 8.30935 18.24C7.79735 17.568 7.43869 16.8587 7.43869 16C7.43869 15.1413 7.79869 14.432 8.30935 13.76C8.79469 13.124 9.50135 12.4173 10.3494 11.5707L10.6267 11.2933Z" fill="black"/>
<path fill-rule="evenodd" clip-rule="evenodd" d="M15.924 1.66667C12.8454 1.66667 10.4334 1.66667 8.55069 1.92001C6.62535 2.17867 5.10535 2.72001 3.91202 3.91201C2.71869 5.10534 2.17869 6.62534 1.92002 8.55201C1.66669 10.4333 1.66669 12.8453 1.66669 15.924V16.076C1.66669 19.1547 1.66669 21.5667 1.92002 23.4493C2.17869 25.3747 2.72002 26.8947 3.91202 28.088C5.10535 29.2813 6.62535 29.8213 8.55202 30.08C10.4334 30.3333 12.8454 30.3333 15.924 30.3333H16.076C19.1547 30.3333 21.5667 30.3333 23.4494 30.08C25.3747 29.8213 26.8947 29.28 28.088 28.088C29.2814 26.8947 29.8214 25.3747 30.08 23.448C30.3334 21.5667 30.3334 19.1547 30.3334 16.076V15.924C30.3334 12.8453 30.3334 10.4333 30.08 8.55067C29.8214 6.62534 29.28 5.10534 28.088 3.91201C26.8947 2.71867 25.3747 2.17867 23.448 1.92001C21.5667 1.66667 19.1547 1.66667 16.076 1.66667H15.924ZM5.32669 5.32667C6.08669 4.56667 7.11335 4.13067 8.81869 3.90134C10.552 3.66934 12.8294 3.66667 16 3.66667C19.1707 3.66667 21.448 3.66934 23.1814 3.90134C24.8867 4.13067 25.9147 4.568 26.6747 5.32667C27.4334 6.08667 27.8694 7.11334 28.0987 8.81867C28.3307 10.552 28.3334 12.8293 28.3334 16C28.3334 19.1707 28.3307 21.448 28.0987 23.1813C27.8694 24.8867 27.432 25.9147 26.6734 26.6747C25.9134 27.4333 24.8867 27.8693 23.1814 28.0987C21.448 28.3307 19.1707 28.3333 16 28.3333C12.8294 28.3333 10.552 28.3307 8.81869 28.0987C7.11335 27.8693 6.08535 27.432 5.32535 26.6733C4.56669 25.9133 4.13069 24.8867 3.90135 23.1813C3.66935 21.448 3.66669 19.1707 3.66669 16C3.66669 12.8293 3.66935 10.552 3.90135 8.81867C4.13069 7.11334 4.56802 6.08667 5.32669 5.32667Z" fill="black"/>
</mask>
<g mask="url(#mask0_122_38)">
<path d="M32 0H0V32H32V0Z" fill="url(#paint0_linear_122_38)"/>
</g>
<defs>
<linearGradient id="paint0_linear_122_38" x1="0" y1="0" x2="32" y2="32" gradientUnits="userSpaceOnUse">
<stop stop-color="#10B981"/>
<stop offset="1" stop-color="#14B8A6"/>
</linearGradient>
</defs>
</svg>
