<svg width="1620" height="982" fill="none" xmlns="http://www.w3.org/2000/svg"><path opacity=".2" d="M483.5 903h-253c-7.456 0-13.5 6.044-13.5 13.5s6.044 13.5 13.5 13.5h253c7.456 0 13.5-6.044 13.5-13.5s-6.044-13.5-13.5-13.5zM552.594 870H350.602c-7.456 0-13.5 6.044-13.5 13.5s6.044 13.5 13.5 13.5h201.992c7.456 0 13.5-6.044 13.5-13.5s-6.044-13.5-13.5-13.5zM609.843 837H298.858c-7.456 0-13.5 6.044-13.5 13.5s6.044 13.5 13.5 13.5h310.985c7.455 0 13.5-6.044 13.5-13.5s-6.045-13.5-13.5-13.5zM869.661 771h-639.06c-7.456 0-13.5 6.044-13.5 13.5s6.044 13.5 13.5 13.5h639.06c7.456 0 13.5-6.044 13.5-13.5s-6.044-13.5-13.5-13.5zM962.139 719H229.5c-7.456 0-13.5 6.044-13.5 13.5s6.044 13.5 13.5 13.5h732.639c7.456 0 13.5-6.044 13.5-13.5s-6.044-13.5-13.5-13.5zM1158.1 686H230.601c-7.456 0-13.5 6.044-13.5 13.5s6.044 13.5 13.5 13.5H1158.1c7.46 0 13.5-6.044 13.5-13.5s-6.04-13.5-13.5-13.5zM962.139 653H230.601c-7.456 0-13.5 6.044-13.5 13.5s6.044 13.5 13.5 13.5h731.538c7.456 0 13.5-6.044 13.5-13.5s-6.044-13.5-13.5-13.5zM233.326 601h-2.725c-7.456 0-13.5 6.044-13.5 13.5s6.044 13.5 13.5 13.5h2.725c7.456 0 13.5-6.044 13.5-13.5s-6.044-13.5-13.5-13.5zM302.684 568h-72.083c-7.456 0-13.5 6.044-13.5 13.5s6.044 13.5 13.5 13.5h72.083c7.456 0 13.5-6.044 13.5-13.5s-6.044-13.5-13.5-13.5zM302.684 535h-72.083c-7.456 0-13.5 6.044-13.5 13.5s6.044 13.5 13.5 13.5h72.083c7.456 0 13.5-6.044 13.5-13.5s-6.044-13.5-13.5-13.5zM359.932 502h-61.074c-7.456 0-13.5 6.044-13.5 13.5s6.044 13.5 13.5 13.5h61.074c7.456 0 13.5-6.044 13.5-13.5s-6.044-13.5-13.5-13.5zM1024.89 469H349.501c-7.456 0-13.5 6.044-13.5 13.5s6.044 13.5 13.5 13.5h675.389c7.46 0 13.5-6.044 13.5-13.5s-6.04-13.5-13.5-13.5zM639.568 436H353.905c-7.456 0-13.5 6.044-13.5 13.5s6.044 13.5 13.5 13.5h285.663c7.455 0 13.5-6.044 13.5-13.5s-6.045-13.5-13.5-13.5zM1391.5 403H349.501c-7.456 0-13.5 6.044-13.5 13.5s6.044 13.5 13.5 13.5H1391.5c7.46 0 13.5-6.044 13.5-13.5s-6.04-13.5-13.5-13.5zM853.147 370H296.656c-7.455 0-13.5 6.044-13.5 13.5s6.045 13.5 13.5 13.5h556.491c7.456 0 13.5-6.044 13.5-13.5s-6.044-13.5-13.5-13.5zM654.981 337h-424.38c-7.456 0-13.5 6.044-13.5 13.5s6.044 13.5 13.5 13.5h424.38c7.455 0 13.5-6.044 13.5-13.5s-6.045-13.5-13.5-13.5zM586.723 304H230.601c-7.456 0-13.5 6.044-13.5 13.5s6.044 13.5 13.5 13.5h356.122c7.456 0 13.5-6.044 13.5-13.5s-6.044-13.5-13.5-13.5zM516.264 271H230.601c-7.456 0-13.5 6.044-13.5 13.5s6.044 13.5 13.5 13.5h285.663c7.456 0 13.5-6.044 13.5-13.5s-6.044-13.5-13.5-13.5zM880.67 214H230.601c-7.456 0-13.5 6.044-13.5 13.5s6.044 13.5 13.5 13.5H880.67c7.456 0 13.5-6.044 13.5-13.5s-6.044-13.5-13.5-13.5z" fill="#17BF63"/><path opacity=".2" d="M230.601 178.5H809.11c7.18 0 13 5.82 13 13s-5.82 13-13 13H230.601c-7.18 0-13-5.82-13-13s5.82-13 13-13z" fill="#17BF63" stroke="#000"/><path opacity=".1" d="M1495.84 776.65a2537.34 2537.34 0 01-5.4 13.116c-2.8 6.7-5.57 13.27-8.29 19.71-1.22 2.854-2.43 5.654-3.61 8.455a2779.636 2779.636 0 01-36.49 81.338c-9.62 20.525-23.92 37.723-41.39 49.791-17.46 12.068-37.46 18.563-57.88 18.804l-235.94 2.924h-2.48l-20.23.248-17.3.213-53.05.656h-2.15l-27.008.337h-.824l-166.469 2.056-148.593 1.772-17.284.213-107.349 1.329h-.125l-69.621.851h-.747l-220.143 2.712-65.856.815c-14.054.181-28.049-2.103-41.493-6.771-23.396-8.051-44.422-23.218-60.816-43.868-28.284-35.503-48.898-76.925-62.744-121.875a459.204 459.204 0 01-5.601-19.71c-47.934-184.602 10.501-422.768 115.672-582.148a607.328 607.328 0 0113.442-19.497l.109-.142c32.345-45.233 68.61-83.022 107.24-109.893 68.455-47.697 144.299-61.132 218.899-21.092 63.118 33.89 122.051 49.824 179.179 54.149a438.17 438.17 0 0017.285.939c131.044 4.697 253.857-49.097 398.077-83.82 5.74-1.382 11.5-2.747 17.3-4.041 102.89-23.326 217.02-35.627 352.74-9.766a264.761 264.761 0 0141.64 11.343 248.369 248.369 0 0117.3 7.09c64.78 30.026 100.11 85.504 115.12 155.02a315.194 315.194 0 013.69 19.692c26.62 167.214-51.34 404.406-118.81 569.05z" fill="#17BF63"/><path d="M1006.65 534.11a412.089 412.089 0 01-6.18-56.71 76.004 76.004 0 00-53.46-69.38c-5.46-1.68-11.47-3.25-18.11-4.66-58.2-12.36-75.88-1.57-77.89-.15a74.578 74.578 0 01-4.43-9.61c-.1-.34-.19-.68-.29-1a74.507 74.507 0 0019.91-44.89c9.71-9.84 15.38-21.72 15.38-34.51 0-11-4.2-21.32-11.55-30.25v-17.38A75.57 75.57 0 00794.46 190h-6.13a75.58 75.58 0 00-53.436 22.134 75.574 75.574 0 00-22.134 53.436v18.73c-6.67 8.61-10.45 18.44-10.45 28.88 0 12.52 5.44 24.16 14.78 33.88a74.52 74.52 0 0020.74 46.34c.41 2.84.83 5.89 1.24 9.11l-104.1 21.99s-40.14 1.65-66 55c-21.87 45.19-65.39 161.29-78.28 195.85-2.33 6.26-3.65 9.85-3.65 9.85s.43-.43 1.24-1.17l-1.24 3.37s.63-.64 1.83-1.69c-1.82 14.46-2.08 39.29 16.86 42.38 15.88 2.59 56.8 3.66 87.71 4.09h2.14c20.49.27 36.08.27 36.08.27v-.27H964.1v-3.41a22.91 22.91 0 00-1.83-9l.46-.56a18.247 18.247 0 013.45 8 7.973 7.973 0 01-.16.84l.2-.51a8.549 8.549 0 01-.2 2.71s42.65-109.89 42.19-175.51c.12-6.91-.4-13.817-1.56-20.63zM740.8 417.36a76.2 76.2 0 01-1.06-9.48v-.09c.37 3.09.73 6.29 1.06 9.57zM611.58 653.4v26.19l-16.4 3.51 16.4-29.7z" fill="url(#paint0_linear)"/><path d="M789.71 200.57a75.57 75.57 0 0175.57 75.57v32.24H714.14v-32.24a75.57 75.57 0 0175.57-75.57z" fill="#E14B5A"/><path d="M790.24 378.14c47.574 0 86.14-26.5 86.14-59.19s-38.566-59.19-86.14-59.19-86.14 26.5-86.14 59.19 38.566 59.19 86.14 59.19z" fill="#E14B5A"/><path d="M735.02 376.29s18 94.07 0 119.44c-18 25.37 55 35.41 55 35.41l75.56-27.48 10.57-67.65s-46-25.9-36.47-78.22l-104.66 18.5zM958.04 693.39S962.8 714 936.9 717.7a146.438 146.438 0 01-46.08-.55l-5.71-51.77h60.25l12.68 28.01zM500.7 667.01s-11.44 46.49 14.46 50.69c25.9 4.2 121 4.23 121 4.23v-55l-43.06 9.2-40.42-38.76-51.98 29.64z" fill="#F7C4A7"/><path opacity=".1" d="M740.58 406.68l-101.21 21.4s-38.58 1.59-63.42 52.85c-24.84 51.26-78.75 197.66-78.75 197.66s46-46.51 99.89 3.17l35.94-65-7.93 103.06h278.48v-48.63s58.13 31.18 53.91 48.62c0 0 49.75-128.18 39-186.43a396.168 396.168 0 01-5.94-54.5 72.998 72.998 0 00-51.38-66.67c-5.24-1.61-11-3.12-17.4-4.47-59.72-12.68-75 0-75 0s-11.57 37.64-11.36 54.7c.26 21.93-31.18 36.47-31.18 36.47s-46.51-11.1-48.62-20.08c-2.11-8.98-18.75-61.58-15.03-72.15z" fill="#000"/><path d="M740.58 404.57l-101.21 21.4s-38.58 1.59-63.42 52.85c-24.84 51.26-78.76 197.68-78.76 197.68s46-46.51 99.89 3.17l35.94-65-7.93 103.03h278.49v-48.62s58.13 31.18 53.91 48.62c0 0 49.75-128.18 39-186.43a396.168 396.168 0 01-5.94-54.5 72.998 72.998 0 00-51.38-66.67c-5.24-1.61-11-3.12-17.4-4.47-59.72-12.68-75 0-75 0s-11.57 37.64-11.36 54.7c.26 21.93-31.18 36.47-31.18 36.47s-46.51-11.1-48.62-20.08c-2.11-8.98-18.75-61.58-15.03-72.15z" fill="#575988"/><path opacity=".1" d="M844 400.08a71.537 71.537 0 01-2.76-37.52l-104.66 18.49s1.51 7.91 3.22 19.76a71.856 71.856 0 0080.549 15.969 71.85 71.85 0 0023.631-16.699h.02z" fill="#000"/><path d="M861.85 346.17a71.878 71.878 0 01-121.662 51.537 71.88 71.88 0 01-22.068-49.797v-1.74a71.893 71.893 0 0140.29-64.59 71.58 71.58 0 016.64-2.84 72.388 72.388 0 0137-3.44 71.821 71.821 0 0159.61 66.1c.127 1.58.19 3.17.19 4.77z" fill="#F7C4A7"/><path d="M764.94 278.8l.1-.06a71.58 71.58 0 00-6.64 2.84 71.893 71.893 0 00-40.29 64.59v1.74a15.985 15.985 0 006.45-1.55c17.52-8.18 28-33.2 32.16-50.65 1.5-6.21 2.91-13.28 8.22-16.91z" fill="#632652"/><path d="M819.95 280.82a71.3 71.3 0 00-17.87-5.51 23.063 23.063 0 0112.83 8.06 32.874 32.874 0 013.93 7 72.07 72.07 0 00-60.45 1.25c4.51 9.89 18.5 15.28 27.84 18.89a508.852 508.852 0 0031 10.83l-9.24-7.5 20.87 3.32a36.132 36.132 0 00-1.46-12.3c4 3.22 9.3 4.3 13.64 7 8.13 5.13 11.52 15 15.95 23.55 1.17 2.26 2.55 4.57 4.66 6a71.912 71.912 0 00-41.7-60.59z" fill="#632652"/><path opacity=".1" d="M709.91 334.32s74-92 159.61 0l-7.4-20.61s-40.17-58.66-68.7-46c-28.53 12.66-56.55 21.67-56.55 21.67l-26.96 44.94z" fill="#000"/><path d="M709.91 332.69s74-92 159.61 0l-7.4-20.61s-40.17-58.66-68.7-46c-28.53 12.66-56.55 21.67-56.55 21.67l-26.96 44.94z" fill="#E14B5A"/><path opacity=".1" d="M649.13 530.88s-15.85 42.28 6.34 80.33c22.19 38.05-19.55 53.91-19.55 53.91M905.98 492.83s27.48 34.88 9.51 66.06-16.91 106.23-16.91 106.23" fill="#000"/><path d="M624.82 696.3h305.47a25.37 25.37 0 0125.37 25.37h-356.2a25.374 25.374 0 017.427-17.936 25.374 25.374 0 0117.933-7.434z" fill="#535461"/><path d="M655.9 521.89h243.32a39 39 0 0139 39v141.22H616.9V560.89a39 39 0 0139-39z" fill="#535461"/><path d="M777.29 638.96c10.51 0 19.03-8.52 19.03-19.03 0-10.51-8.52-19.03-19.03-19.03-10.51 0-19.03 8.52-19.03 19.03 0 10.51 8.52 19.03 19.03 19.03z" fill="#FFF5F5"/><path opacity=".1" d="M714.14 291.2s72.72-72.68 151.15-1.33" stroke="#000" stroke-miterlimit="10"/><path d="M883.66 286.57h-7.3v41.39h7.3v-41.39z" fill="#6A5C99"/><path d="M866.62 313.35a25.163 25.163 0 0125.16 25.16v1.62a25.163 25.163 0 01-25.16 25.16v-51.94z" fill="#FFD037"/><path d="M873.11 316.6a5.68 5.68 0 10-11.36 0v45.45a5.68 5.68 0 1011.36 0V316.6zM695.02 328.77h7.3v-41.39h-7.3v41.39z" fill="#6A5C99"/><path d="M712.06 366.1a25.163 25.163 0 01-25.16-25.16v-1.62a25.164 25.164 0 0115.532-23.245 25.164 25.164 0 019.628-1.915v51.94z" fill="#FFD037"/><path d="M705.57 362.85a5.68 5.68 0 1011.36 0V317.4a5.68 5.68 0 10-11.36 0v45.45z" fill="#6A5C99"/><path d="M875.5 242.33c-9.89-20.56-31.43-45.42-77.86-47.41v-.06h-.56l-16.45.78v.08c-46.12 2.12-67.56 26.89-77.42 47.38a106.588 106.588 0 00-10.22 44.4l5.68-.14 5.68-.13a96.65 96.65 0 019.23-39.52c12.52-25.72 35.56-39.39 68.47-40.66l14.55-.81c32.93 1.26 55.98 14.95 68.49 40.66a96.635 96.635 0 019.25 39.54l5.68.13 5.68.14a106.588 106.588 0 00-10.2-44.38z" fill="#FFD037"/><path d="M1124.99 722H370.28c-5.523 0-10 4.477-10 10v188c0 5.523 4.477 10 10 10h754.71c5.52 0 10-4.477 10-10V732c0-5.523-4.48-10-10-10z" fill="#B1B1B8"/><path opacity=".1" d="M1134.99 736H360.28v27h774.71v-27z" fill="#000"/><path d="M1176.94 719H318.31c-5.523 0-10 4.477-10 10v7c0 5.523 4.477 10 10 10h858.63c5.52 0 10-4.477 10-10v-7c0-5.523-4.48-10-10-10z" fill="#B1B1B1"/><defs><linearGradient id="paint0_linear" x1="747.63" y1="732.5" x2="747.63" y2="190" gradientUnits="userSpaceOnUse"><stop stop-color="gray" stop-opacity=".25"/><stop offset=".54" stop-color="gray" stop-opacity=".12"/><stop offset="1" stop-color="gray" stop-opacity=".1"/></linearGradient></defs></svg>