<svg width="1620" height="982" viewBox="0 0 1620 982" fill="none" xmlns="http://www.w3.org/2000/svg">
<path opacity="0.2" d="M483.5 903H230.5C223.044 903 217 909.044 217 916.5C217 923.956 223.044 930 230.5 930H483.5C490.956 930 497 923.956 497 916.5C497 909.044 490.956 903 483.5 903Z" fill="#17BF63"/>
<path opacity="0.2" d="M552.594 870H350.602C343.146 870 337.102 876.044 337.102 883.5C337.102 890.956 343.146 897 350.602 897H552.594C560.05 897 566.094 890.956 566.094 883.5C566.094 876.044 560.05 870 552.594 870Z" fill="#17BF63"/>
<path opacity="0.2" d="M609.843 837H298.858C291.402 837 285.358 843.044 285.358 850.5C285.358 857.956 291.402 864 298.858 864H609.843C617.298 864 623.343 857.956 623.343 850.5C623.343 843.044 617.298 837 609.843 837Z" fill="#17BF63"/>
<path opacity="0.2" d="M869.661 771H230.601C223.145 771 217.101 777.044 217.101 784.5C217.101 791.956 223.145 798 230.601 798H869.661C877.117 798 883.161 791.956 883.161 784.5C883.161 777.044 877.117 771 869.661 771Z" fill="#17BF63"/>
<path opacity="0.2" d="M962.139 719H229.5C222.044 719 216 725.044 216 732.5C216 739.956 222.044 746 229.5 746H962.139C969.595 746 975.639 739.956 975.639 732.5C975.639 725.044 969.595 719 962.139 719Z" fill="#17BF63"/>
<path opacity="0.2" d="M1158.1 686H230.601C223.145 686 217.101 692.044 217.101 699.5C217.101 706.956 223.145 713 230.601 713H1158.1C1165.56 713 1171.6 706.956 1171.6 699.5C1171.6 692.044 1165.56 686 1158.1 686Z" fill="#17BF63"/>
<path opacity="0.2" d="M962.139 653H230.601C223.145 653 217.101 659.044 217.101 666.5C217.101 673.956 223.145 680 230.601 680H962.139C969.595 680 975.639 673.956 975.639 666.5C975.639 659.044 969.595 653 962.139 653Z" fill="#17BF63"/>
<path opacity="0.2" d="M233.326 601H230.601C223.145 601 217.101 607.044 217.101 614.5C217.101 621.956 223.145 628 230.601 628H233.326C240.782 628 246.826 621.956 246.826 614.5C246.826 607.044 240.782 601 233.326 601Z" fill="#17BF63"/>
<path opacity="0.2" d="M302.684 568H230.601C223.145 568 217.101 574.044 217.101 581.5C217.101 588.956 223.145 595 230.601 595H302.684C310.14 595 316.184 588.956 316.184 581.5C316.184 574.044 310.14 568 302.684 568Z" fill="#17BF63"/>
<path opacity="0.2" d="M302.684 535H230.601C223.145 535 217.101 541.044 217.101 548.5C217.101 555.956 223.145 562 230.601 562H302.684C310.14 562 316.184 555.956 316.184 548.5C316.184 541.044 310.14 535 302.684 535Z" fill="#17BF63"/>
<path opacity="0.2" d="M359.932 502H298.858C291.402 502 285.358 508.044 285.358 515.5C285.358 522.956 291.402 529 298.858 529H359.932C367.388 529 373.432 522.956 373.432 515.5C373.432 508.044 367.388 502 359.932 502Z" fill="#17BF63"/>
<path opacity="0.2" d="M1024.89 469H349.501C342.045 469 336.001 475.044 336.001 482.5C336.001 489.956 342.045 496 349.501 496H1024.89C1032.35 496 1038.39 489.956 1038.39 482.5C1038.39 475.044 1032.35 469 1024.89 469Z" fill="#17BF63"/>
<path opacity="0.2" d="M639.568 436H353.905C346.449 436 340.405 442.044 340.405 449.5C340.405 456.956 346.449 463 353.905 463H639.568C647.023 463 653.068 456.956 653.068 449.5C653.068 442.044 647.023 436 639.568 436Z" fill="#17BF63"/>
<path opacity="0.2" d="M1391.5 403H349.501C342.045 403 336.001 409.044 336.001 416.5C336.001 423.956 342.045 430 349.501 430H1391.5C1398.96 430 1405 423.956 1405 416.5C1405 409.044 1398.96 403 1391.5 403Z" fill="#17BF63"/>
<path opacity="0.2" d="M853.147 370H296.656C289.201 370 283.156 376.044 283.156 383.5C283.156 390.956 289.201 397 296.656 397H853.147C860.603 397 866.647 390.956 866.647 383.5C866.647 376.044 860.603 370 853.147 370Z" fill="#17BF63"/>
<path opacity="0.2" d="M654.981 337H230.601C223.145 337 217.101 343.044 217.101 350.5C217.101 357.956 223.145 364 230.601 364H654.981C662.436 364 668.481 357.956 668.481 350.5C668.481 343.044 662.436 337 654.981 337Z" fill="#17BF63"/>
<path opacity="0.2" d="M586.723 304H230.601C223.145 304 217.101 310.044 217.101 317.5C217.101 324.956 223.145 331 230.601 331H586.723C594.179 331 600.223 324.956 600.223 317.5C600.223 310.044 594.179 304 586.723 304Z" fill="#17BF63"/>
<path opacity="0.2" d="M516.264 271H230.601C223.145 271 217.101 277.044 217.101 284.5C217.101 291.956 223.145 298 230.601 298H516.264C523.72 298 529.764 291.956 529.764 284.5C529.764 277.044 523.72 271 516.264 271Z" fill="#17BF63"/>
<path opacity="0.2" d="M880.67 214H230.601C223.145 214 217.101 220.044 217.101 227.5C217.101 234.956 223.145 241 230.601 241H880.67C888.126 241 894.17 234.956 894.17 227.5C894.17 220.044 888.126 214 880.67 214Z" fill="#17BF63"/>
<path opacity="0.2" d="M230.601 178.5H809.11C816.29 178.5 822.11 184.32 822.11 191.5C822.11 198.68 816.29 204.5 809.11 204.5H230.601C223.421 204.5 217.601 198.68 217.601 191.5C217.601 184.32 223.421 178.5 230.601 178.5Z" fill="#17BF63" stroke="black"/>
<path opacity="0.1" d="M1495.84 776.65C1494.03 781.081 1492.23 785.453 1490.44 789.766C1487.64 796.466 1484.87 803.036 1482.15 809.476C1480.93 812.33 1479.72 815.13 1478.54 817.931C1465.16 849.073 1452.66 876.617 1442.05 899.269C1432.43 919.794 1418.13 936.992 1400.66 949.06C1383.2 961.128 1363.2 967.623 1342.78 967.864L1106.84 970.788H1104.36L1084.13 971.036L1066.83 971.249L1013.78 971.905H1011.63L984.622 972.242H983.798L817.329 974.298L668.736 976.07L651.452 976.283L544.103 977.612H543.978L474.357 978.463H473.61L253.467 981.175L187.611 981.99C173.557 982.171 159.562 979.887 146.118 975.219C122.722 967.168 101.696 952.001 85.3024 931.351C57.0182 895.848 36.4041 854.426 22.5577 809.476C20.5559 802.989 18.689 796.419 16.9569 789.766C-30.9768 605.164 27.4584 366.998 132.629 207.618C137.037 200.953 141.518 194.454 146.071 188.121L146.18 187.979C178.525 142.746 214.79 104.957 253.42 78.0861C321.875 30.3891 397.719 16.9538 472.319 56.9938C535.437 90.8833 594.37 106.818 651.498 111.143C657.27 111.568 663.042 111.887 668.783 112.082C799.827 116.779 922.64 62.9847 1066.86 28.2621C1072.6 26.8796 1078.36 25.5148 1084.16 24.2209C1187.05 0.89525 1301.18 -11.4056 1436.9 14.4546C1451 17.079 1464.92 20.8703 1478.54 25.7984C1484.52 27.9962 1490.29 30.3595 1495.84 32.8882C1560.62 62.9138 1595.95 118.392 1610.96 187.908C1612.39 194.36 1613.61 200.924 1614.65 207.6C1641.27 374.814 1563.31 612.006 1495.84 776.65Z" fill="#17BF63"/>
<path d="M1006.65 534.11C1003.28 515.372 1001.22 496.423 1000.47 477.4C999.805 461.733 994.311 446.656 984.74 434.234C975.169 421.813 961.99 412.657 947.01 408.02C941.55 406.34 935.54 404.77 928.9 403.36C870.7 391 853.02 401.79 851.01 403.21C849.308 400.116 847.827 396.904 846.58 393.6C846.48 393.26 846.39 392.92 846.29 392.6C857.809 380.316 864.827 364.493 866.2 347.71C875.91 337.87 881.58 325.99 881.58 313.2C881.58 302.2 877.38 291.88 870.03 282.95V265.57C870.03 245.528 862.068 226.306 847.896 212.134C833.724 197.962 814.502 190 794.46 190H788.33C778.406 190 768.579 191.955 759.411 195.752C750.242 199.55 741.911 205.117 734.894 212.134C727.877 219.151 722.31 227.482 718.512 236.651C714.715 245.819 712.76 255.646 712.76 265.57V284.3C706.09 292.91 702.31 302.74 702.31 313.18C702.31 325.7 707.75 337.34 717.09 347.06C718.366 364.458 725.706 380.857 737.83 393.4C738.24 396.24 738.66 399.29 739.07 402.51L634.97 424.5C634.97 424.5 594.83 426.15 568.97 479.5C547.1 524.69 503.58 640.79 490.69 675.35C488.36 681.61 487.04 685.2 487.04 685.2C487.04 685.2 487.47 684.77 488.28 684.03L487.04 687.4C487.04 687.4 487.67 686.76 488.87 685.71C487.05 700.17 486.79 725 505.73 728.09C521.61 730.68 562.53 731.75 593.44 732.18H595.58C616.07 732.45 631.66 732.45 631.66 732.45V732.18H964.1V728.77C964.104 725.677 963.481 722.616 962.27 719.77L962.73 719.21C964.509 721.559 965.693 724.304 966.18 727.21C966.142 727.493 966.088 727.773 966.02 728.05L966.22 727.54C966.298 728.448 966.231 729.363 966.02 730.25C966.02 730.25 1008.67 620.36 1008.21 554.74C1008.33 547.83 1007.81 540.923 1006.65 534.11ZM740.8 417.36C740.249 414.225 739.895 411.059 739.74 407.88C739.74 407.88 739.74 407.82 739.74 407.79C740.11 410.88 740.47 414.08 740.8 417.36ZM611.58 653.4V679.59L595.18 683.1L611.58 653.4Z" fill="url(#paint0_linear)"/>
<path d="M789.71 200.57C809.752 200.57 828.974 208.532 843.146 222.704C857.318 236.876 865.28 256.098 865.28 276.14V308.38H714.14V276.14C714.14 256.098 722.102 236.876 736.274 222.704C750.446 208.532 769.668 200.57 789.71 200.57Z" fill="#E14B5A"/>
<path d="M790.24 378.14C837.814 378.14 876.38 351.64 876.38 318.95C876.38 286.26 837.814 259.76 790.24 259.76C742.666 259.76 704.1 286.26 704.1 318.95C704.1 351.64 742.666 378.14 790.24 378.14Z" fill="#E14B5A"/>
<path d="M735.02 376.29C735.02 376.29 753.02 470.36 735.02 495.73C717.02 521.1 790.02 531.14 790.02 531.14L865.58 503.66L876.15 436.01C876.15 436.01 830.15 410.11 839.68 357.79L735.02 376.29Z" fill="#F7C4A7"/>
<path d="M958.04 693.39C958.04 693.39 962.8 714 936.9 717.7C921.607 719.95 906.055 719.764 890.82 717.15L885.11 665.38H945.36L958.04 693.39Z" fill="#F7C4A7"/>
<path d="M500.7 667.01C500.7 667.01 489.26 713.5 515.16 717.7C541.06 721.9 636.16 721.93 636.16 721.93V666.93L593.1 676.13L552.68 637.37L500.7 667.01Z" fill="#F7C4A7"/>
<path opacity="0.1" d="M740.58 406.68L639.37 428.08C639.37 428.08 600.79 429.67 575.95 480.93C551.11 532.19 497.2 678.59 497.2 678.59C497.2 678.59 543.2 632.08 597.09 681.76L633.03 616.76L625.1 719.82H903.58V671.19C903.58 671.19 961.71 702.37 957.49 719.81C957.49 719.81 1007.24 591.63 996.49 533.38C993.254 515.372 991.269 497.162 990.55 478.88C989.915 463.823 984.636 449.331 975.436 437.394C966.237 425.457 953.569 416.66 939.17 412.21C933.93 410.6 928.17 409.09 921.77 407.74C862.05 395.06 846.77 407.74 846.77 407.74C846.77 407.74 835.2 445.38 835.41 462.44C835.67 484.37 804.23 498.91 804.23 498.91C804.23 498.91 757.72 487.81 755.61 478.83C753.5 469.85 736.86 417.25 740.58 406.68Z" fill="black"/>
<path d="M740.58 404.57L639.37 425.97C639.37 425.97 600.79 427.56 575.95 478.82C551.11 530.08 497.19 676.5 497.19 676.5C497.19 676.5 543.19 629.99 597.08 679.67L633.02 614.67L625.09 717.7H903.58V669.08C903.58 669.08 961.71 700.26 957.49 717.7C957.49 717.7 1007.24 589.52 996.49 531.27C993.254 513.262 991.269 495.052 990.55 476.77C989.915 461.713 984.636 447.221 975.436 435.284C966.237 423.347 953.569 414.55 939.17 410.1C933.93 408.49 928.17 406.98 921.77 405.63C862.05 392.95 846.77 405.63 846.77 405.63C846.77 405.63 835.2 443.27 835.41 460.33C835.67 482.26 804.23 496.8 804.23 496.8C804.23 496.8 757.72 485.7 755.61 476.72C753.5 467.74 736.86 415.14 740.58 404.57Z" fill="#575988"/>
<path opacity="0.1" d="M844 400.08C839.749 388.044 838.796 375.089 841.24 362.56L736.58 381.05C736.58 381.05 738.09 388.96 739.8 400.81C746.562 407.827 754.681 413.395 763.663 417.176C772.645 420.957 782.302 422.872 792.047 422.803C801.792 422.735 811.421 420.685 820.349 416.779C829.277 412.873 837.317 407.191 843.98 400.08H844Z" fill="black"/>
<path d="M861.85 346.17C861.768 365.029 854.278 383.1 840.994 396.487C827.711 409.873 809.698 417.504 790.841 417.732C771.983 417.96 753.791 410.768 740.188 397.707C726.584 384.646 718.659 366.761 718.12 347.91C718.12 347.33 718.12 346.75 718.12 346.17C718.117 332.712 721.891 319.523 729.014 308.104C736.137 296.686 746.322 287.496 758.41 281.58C760.563 280.527 762.777 279.58 765.05 278.74C776.874 274.393 789.627 273.208 802.05 275.3C817.971 278.011 832.513 286.009 843.329 298.002C854.145 309.996 860.603 325.285 861.66 341.4C861.787 342.98 861.85 344.57 861.85 346.17Z" fill="#F7C4A7"/>
<path d="M764.94 278.8L765.04 278.74C762.767 279.58 760.553 280.527 758.4 281.58C746.312 287.496 736.127 296.686 729.004 308.104C721.881 319.523 718.107 332.712 718.11 346.17C718.11 346.75 718.11 347.33 718.11 347.91C720.345 347.85 722.542 347.322 724.56 346.36C742.08 338.18 752.56 313.16 756.72 295.71C758.22 289.5 759.63 282.43 764.94 278.8Z" fill="#632652"/>
<path d="M819.95 280.82C814.261 278.207 808.253 276.354 802.08 275.31C807.142 276.475 811.663 279.315 814.91 283.37C816.501 285.534 817.821 287.885 818.84 290.37C809.275 286.188 798.915 284.133 788.478 284.349C778.04 284.565 767.774 287.046 758.39 291.62C762.9 301.51 776.89 306.9 786.23 310.51C796.457 314.457 806.79 318.067 817.23 321.34L807.99 313.84L828.86 317.16C829.085 313.007 828.591 308.845 827.4 304.86C831.4 308.08 836.7 309.16 841.04 311.86C849.17 316.99 852.56 326.86 856.99 335.41C858.16 337.67 859.54 339.98 861.65 341.41C860.797 328.492 856.472 316.044 849.133 305.38C841.793 294.716 831.711 286.231 819.95 280.82Z" fill="#632652"/>
<path opacity="0.1" d="M709.91 334.32C709.91 334.32 783.91 242.32 869.52 334.32L862.12 313.71C862.12 313.71 821.95 255.05 793.42 267.71C764.89 280.37 736.87 289.38 736.87 289.38L709.91 334.32Z" fill="black"/>
<path d="M709.91 332.69C709.91 332.69 783.91 240.69 869.52 332.69L862.12 312.08C862.12 312.08 821.95 253.42 793.42 266.08C764.89 278.74 736.87 287.75 736.87 287.75L709.91 332.69Z" fill="#E14B5A"/>
<path opacity="0.1" d="M649.13 530.88C649.13 530.88 633.28 573.16 655.47 611.21C677.66 649.26 635.92 665.12 635.92 665.12" fill="black"/>
<path opacity="0.1" d="M905.98 492.83C905.98 492.83 933.46 527.71 915.49 558.89C897.52 590.07 898.58 665.12 898.58 665.12" fill="black"/>
<path d="M624.82 696.3H930.29C937.018 696.3 943.471 698.973 948.229 703.731C952.987 708.489 955.66 714.941 955.66 721.67H599.46C599.46 714.943 602.132 708.492 606.887 703.734C611.643 698.977 618.093 696.303 624.82 696.3Z" fill="#535461"/>
<path d="M655.9 521.89H899.22C904.342 521.89 909.413 522.899 914.145 524.859C918.876 526.819 923.176 529.691 926.797 533.313C930.419 536.934 933.291 541.234 935.251 545.965C937.211 550.697 938.22 555.768 938.22 560.89V702.11H616.9V560.89C616.9 550.547 621.009 540.627 628.323 533.313C635.637 525.999 645.557 521.89 655.9 521.89Z" fill="#535461"/>
<path d="M777.29 638.96C787.8 638.96 796.32 630.44 796.32 619.93C796.32 609.42 787.8 600.9 777.29 600.9C766.78 600.9 758.26 609.42 758.26 619.93C758.26 630.44 766.78 638.96 777.29 638.96Z" fill="#FFF5F5"/>
<path opacity="0.1" d="M714.14 291.2C714.14 291.2 786.86 218.52 865.29 289.87" stroke="black" stroke-miterlimit="10"/>
<path d="M883.66 286.57H876.36V327.96H883.66V286.57Z" fill="#6A5C99"/>
<path d="M866.62 313.35C873.293 313.35 879.692 316.001 884.411 320.719C889.129 325.438 891.78 331.837 891.78 338.51V340.13C891.78 346.803 889.129 353.202 884.411 357.921C879.692 362.639 873.293 365.29 866.62 365.29V313.35Z" fill="#FFD037"/>
<path d="M873.11 316.6C873.11 313.463 870.567 310.92 867.43 310.92C864.293 310.92 861.75 313.463 861.75 316.6V362.05C861.75 365.187 864.293 367.73 867.43 367.73C870.567 367.73 873.11 365.187 873.11 362.05V316.6Z" fill="#6A5C99"/>
<path d="M695.02 328.77H702.32V287.38H695.02V328.77Z" fill="#6A5C99"/>
<path d="M712.06 366.1C705.387 366.1 698.988 363.449 694.269 358.731C689.551 354.012 686.9 347.613 686.9 340.94V339.32C686.9 336.016 687.551 332.744 688.815 329.692C690.08 326.639 691.933 323.865 694.269 321.529C696.606 319.193 699.379 317.34 702.432 316.075C705.484 314.811 708.756 314.16 712.06 314.16V366.1Z" fill="#FFD037"/>
<path d="M705.57 362.85C705.57 365.987 708.113 368.53 711.25 368.53C714.387 368.53 716.93 365.987 716.93 362.85V317.4C716.93 314.263 714.387 311.72 711.25 311.72C708.113 311.72 705.57 314.263 705.57 317.4V362.85Z" fill="#6A5C99"/>
<path d="M875.5 242.33C865.61 221.77 844.07 196.91 797.64 194.92V194.86H797.08L780.63 195.64V195.72C734.51 197.84 713.07 222.61 703.21 243.1C696.643 256.99 693.157 272.136 692.99 287.5L698.67 287.36L704.35 287.23C704.595 273.552 707.741 260.082 713.58 247.71C726.1 221.99 749.14 208.32 782.05 207.05L796.6 206.24C829.53 207.5 852.58 221.19 865.09 246.9C870.939 259.276 874.092 272.754 874.34 286.44L880.02 286.57L885.7 286.71C885.537 271.355 882.057 256.216 875.5 242.33Z" fill="#FFD037"/>
<path d="M1124.99 722H370.28C364.757 722 360.28 726.477 360.28 732V920C360.28 925.523 364.757 930 370.28 930H1124.99C1130.51 930 1134.99 925.523 1134.99 920V732C1134.99 726.477 1130.51 722 1124.99 722Z" fill="#B1B1B8"/>
<path opacity="0.1" d="M1134.99 736H360.28V763H1134.99V736Z" fill="black"/>
<path d="M1176.94 719H318.31C312.787 719 308.31 723.477 308.31 729V736C308.31 741.523 312.787 746 318.31 746H1176.94C1182.46 746 1186.94 741.523 1186.94 736V729C1186.94 723.477 1182.46 719 1176.94 719Z" fill="#B1B1B1"/>
<defs>
<linearGradient id="paint0_linear" x1="747.63" y1="732.5" x2="747.63" y2="190" gradientUnits="userSpaceOnUse">
<stop stop-color="#808080" stop-opacity="0.25"/>
<stop offset="0.54" stop-color="#808080" stop-opacity="0.12"/>
<stop offset="1" stop-color="#808080" stop-opacity="0.1"/>
</linearGradient>
</defs>
</svg>
