<svg width="100" height="100" viewBox="0 0 100 100" fill="none" xmlns="http://www.w3.org/2000/svg">
<path d="M98.1139 45.5443L54.4524 1.88611C51.9397 -0.628705 47.8614 -0.628705 45.3455 1.88611L36.2792 10.9524L47.7802 22.4534C50.453 21.5504 53.5175 22.1561 55.6483 24.2869C57.789 26.4308 58.3903 29.5217 57.4653 32.2033L68.5494 43.2874C71.231 42.3635 74.3251 42.9615 76.4669 45.1066C79.4601 48.0987 79.4601 52.9484 76.4669 55.9427C73.4726 58.937 68.6229 58.937 65.6275 55.9427C63.376 53.689 62.8197 50.382 63.9597 47.6082L53.6229 37.2713L53.6218 64.4735C54.3514 64.8356 55.0405 65.3173 55.6483 65.9229C58.6415 68.915 58.6415 73.7647 55.6483 76.7612C52.654 79.7544 47.8021 79.7544 44.8122 76.7612C41.819 73.7647 41.819 68.915 44.8122 65.9229C45.5518 65.1845 46.4076 64.626 47.3205 64.2508V36.7951C46.4076 36.4221 45.5528 35.8669 44.8122 35.123C42.5443 32.8583 41.999 29.5305 43.1609 26.7457L31.8245 15.4071L1.88694 45.3425C-0.628979 47.8595 -0.628979 51.9378 1.88694 54.4526L45.5485 98.112C48.0622 100.627 52.1394 100.627 54.6564 98.112L98.1139 54.6556C100.629 52.1397 100.629 48.0592 98.1139 45.5443Z" fill="#DE4C36"/>
</svg>
