<svg width="100" height="100" viewBox="0 0 100 100" fill="none" xmlns="http://www.w3.org/2000/svg">
<mask id="mask0" mask-type="alpha" maskUnits="userSpaceOnUse" x="0" y="0" width="100" height="100">
<path d="M70.9117 99.0593C72.4867 99.673 74.2828 99.6335 75.8727 98.8687L96.4609 88.9621C98.6242 87.921 100 85.7312 100 83.3292V16.1554C100 13.7534 98.6242 11.5639 96.4609 10.5229L75.8727 0.615881C73.7863 -0.388003 71.3445 -0.142114 69.5137 1.18907C69.252 1.37924 69.0027 1.59156 68.7691 1.82554L29.3551 37.7836L12.1872 24.7518C10.589 23.5387 8.35363 23.638 6.86934 24.9882L1.36303 29.997C-0.452552 31.6486 -0.454634 34.5049 1.35853 36.1591L16.2471 49.7421L1.35853 63.3253C-0.454634 64.9796 -0.452552 67.8359 1.36303 69.4874L6.86934 74.496C8.35363 75.8464 10.589 75.9456 12.1872 74.7327L29.3551 61.7007L68.7691 97.6589C69.3926 98.2828 70.1246 98.7527 70.9117 99.0593ZM75.0152 27.0411L45.109 49.7421L75.0152 72.4433V27.0411Z" fill="white"/>
</mask>
<g mask="url(#mask0)">
<path d="M96.522 10.5384L75.9177 0.617698C73.5329 -0.530615 70.6825 -0.0462312 68.8106 1.82549L1.35936 63.3254C-0.454911 64.9797 -0.452825 67.8359 1.36386 69.4875L6.8735 74.4961C8.35873 75.8465 10.5955 75.9457 12.1946 74.7328L93.4216 13.112C96.1466 11.0448 100.061 12.9884 100.061 16.4088V16.1696C100.061 13.7686 98.6852 11.5799 96.522 10.5384Z" fill="#0065A9"/>
<path d="M96.522 88.946L75.9177 98.8667C73.5329 100.015 70.6825 99.5304 68.8106 97.6589L1.35936 36.159C-0.454911 34.5048 -0.452825 31.6485 1.36386 29.9969L6.8735 24.9881C8.35873 23.638 10.5955 23.5385 12.1946 24.7517L93.4216 86.3722C96.1466 88.4394 100.061 86.496 100.061 83.0753V83.3148C100.061 85.7156 98.6852 87.9042 96.522 88.946Z" fill="#007ACC"/>
<path d="M75.8531 98.8746C73.4676 100.022 70.6172 99.5371 68.7453 97.6653C71.0516 99.9715 74.9953 98.3379 74.9953 95.0762V4.42059C74.9953 1.15886 71.0516 -0.474632 68.7453 1.83177C70.6172 -0.040124 73.4676 -0.525192 75.8531 0.622108L96.4539 10.5291C98.6187 11.5702 99.9953 13.7597 99.9953 16.1617V83.3356C99.9953 85.7375 98.6187 87.927 96.4539 88.968L75.8531 98.8746Z" fill="#1F9CF0"/>
<path d="M70.9118 99.0593C72.4868 99.6725 74.2829 99.6335 75.8724 98.8686L96.4606 88.9616C98.6243 87.9206 100 85.7311 100 83.3292V16.1553C100 13.7533 98.6243 11.5638 96.461 10.5228L75.8724 0.615761C73.7864 -0.388125 71.3446 -0.142236 69.5134 1.18895C69.2521 1.37911 69.0028 1.59143 68.7688 1.82542L29.3551 37.7835L12.1872 24.7516C10.589 23.5385 8.35361 23.6379 6.86932 24.9881L1.36303 29.9969C-0.452552 31.6484 -0.454634 34.5048 1.35853 36.159L16.2471 49.7421L1.35853 63.3253C-0.454634 64.9796 -0.452552 67.8358 1.36303 69.4874L6.86932 74.496C8.35361 75.8464 10.589 75.9456 12.1872 74.7327L29.3551 61.7007L68.7688 97.6589C69.3923 98.2827 70.1247 98.7526 70.9118 99.0593ZM75.0153 27.0409L45.1091 49.7421L75.0153 72.4432V27.0409Z" fill="url(#paint0_linear)" fill-opacity="0.25"/>
</g>
<defs>
<linearGradient id="paint0_linear" x1="50.0001" y1="-0.00012246" x2="50.0001" y2="99.4843" gradientUnits="userSpaceOnUse">
<stop stop-color="white"/>
<stop offset="1" stop-color="white" stop-opacity="0"/>
</linearGradient>
</defs>
</svg>
